<svg xmlns="http://www.w3.org/2000/svg"   width="375" height="570"><defs><linearGradient id="a" x1=".639%" x2="99.361%" y1="0%" y2="100%"><stop offset="0%" stop-color="#ff8f71"/><stop offset="100%" stop-color="#ff3e55"/></linearGradient></defs><path fill="url(#a)" fill-rule="evenodd" d="M -193.9 553.3 v 289.3 h -285.9 v -252.7 c 0 -20.2 16.2 -36.7 36.3 -36.7 h 249.5 z m -476.3 -0.5 c 79 0 143 64.6 143 144.3 v 0.6 c 0 79.8 -64 144.3 -143 144.3 S -813.1 777.5 -813.1 697.7 v -0.6 c 0 -79.8 64 -144.3 143 -144.3 z m 142.6 -340.1 v 252.7 c 0 20.2 -16.2 36.7 -36.3 36.7 H -813.6 v -289.3 h 285.9 z m 333.7 0 v 289.3 h -249.5 c -20 0 -36.3 -16.5 -36.3 -36.7 v -252.7 h 285.9 z" transform="matrix(0.9,0.5,-0.5,0.9,1005.3,189.1)" /></svg>