<svg xmlns="http://www.w3.org/2000/svg" width="3175" height="3174"><defs><linearGradient id="a" x1=".639%" x2="99.361%" y1="0%" y2="100%"><stop offset="0%" stop-color="#ff8f71"/><stop offset="100%" stop-color="#ff3e55"/></linearGradient></defs><g>
        <path fill="url(#a)" fill-rule="evenodd" transform="matrix(1.2,0.6,-0.5,1.4,597.3,813.8)" d="M 3408.1 -334.5 v 1810 h -1801 v -1580.4 c 0 -126.8 102.5 -229.6 228.9 -229.6 h 1572.1 z m -2999.8 -2.7 c 497.3 0 900.5 404.3 900.5 903.1 v 3.8 c 0 498.8 -403.2 903.1 -900.5 903.1 S -492.2 1068.4 -492.2 569.7 v -3.8 c 0 -498.8 403.2 -903.1 900.5 -903.1 z m 897.8 -2126.8 v 1580.4 c 0 126.8 -102.5 229.6 -228.9 229.6 H -494.9 v -1810 h 1801 z m 2102 0 v 1810 h -1572.1 c -126.4 0 -228.9 -102.8 -228.9 -229.6 v -1580.4 h 1801 z"/>
    </g></svg>